<?xml version="1.0" encoding="UTF-8" standalone="no"?>
<!DOCTYPE svg PUBLIC "-//W3C//DTD SVG 1.1//EN" "http://www.w3.org/Graphics/SVG/1.1/DTD/svg11.dtd">
<svg width="100%" height="100%" viewBox="0 0 3600 3600" version="1.1" xmlns="http://www.w3.org/2000/svg" xmlns:xlink="http://www.w3.org/1999/xlink" xml:space="preserve" xmlns:serif="http://www.serif.com/" style="fill-rule:evenodd;clip-rule:evenodd;stroke-linejoin:round;stroke-miterlimit:2;">
    <g transform="matrix(1,0,0,1,8.82741,-10)">
        <g transform="matrix(1.40433,0,0,1.40433,-928.281,-909.495)">
            <path d="M2803.85,961.864L2803.85,950.586C2803.85,930.631 2787.5,914.291 2767.54,914.291L2544.71,914.261C2529.99,914.261 2516.89,904.776 2512.44,890.662L2473.73,768.863L1777.36,768.863L1738.63,890.662C1734.19,904.776 1721.1,914.261 1706.38,914.261L1483.54,914.261C1463.58,914.261 1447.24,930.602 1447.24,950.557L1447.24,961.864L2803.85,961.864ZM1447.43,1029.63L1447.43,1030.22C1447.43,1031.48 1447.37,1032.72 1447.24,1033.94L1447.24,1091.32L2803.85,1091.32L2803.85,1029.63L1447.43,1029.63ZM1204.01,1833.67L1204.01,1936.51L3082.94,1936.51L3082.94,1833.67L1204.01,1833.67ZM1204.01,1684.23L1204.01,1765.91L1385.99,1765.91C1381.79,1754.6 1379.48,1742.37 1379.48,1729.58L1379.48,1684.23L1204.01,1684.23ZM1204.01,1517.05L1204.01,1616.46L1379.48,1616.46L1379.48,1517.05L1204.01,1517.05ZM1204.01,1231.09L1204.01,1449.29L1379.48,1449.29L1379.48,1231.09L1204.01,1231.09ZM1204.01,1064.1L1204.01,1163.33L1379.48,1163.33L1379.48,1064.1L1204.01,1064.1ZM989.058,1160.71L925.341,1160.71L925.341,1221.2C925.341,1239.96 910.222,1255.08 891.459,1255.08L863.014,1255.08C822.67,1255.08 790.019,1287.97 790.019,1328.09L790.019,1373.27C790.019,1413.61 822.897,1446.27 863.014,1446.27L891.459,1446.27C910.222,1446.27 925.341,1461.39 925.341,1480.14L925.341,1540.65L989.058,1540.65L989.058,1160.71ZM1056.44,1123.29C1056.56,1124.45 1056.62,1125.63 1056.62,1126.82C1056.62,1128.02 1056.56,1129.21 1056.44,1130.37L1056.43,1570.89C1056.56,1572.08 1056.62,1573.3 1056.62,1574.53C1056.62,1575.76 1056.56,1576.98 1056.43,1578.18L1056.42,1936.51L1135.88,1936.51L1135.88,804.961C1135.88,783.174 1118.15,765.238 1096.16,765.238C1074.38,765.238 1056.45,782.977 1056.45,804.961L1056.44,1123.29ZM2241.5,2115.01C2242.72,2114.87 2243.96,2114.79 2245.22,2114.79C2246.48,2114.79 2247.73,2114.87 2248.95,2115.01L2377.13,2115.01L2377.13,2004.28L1909.66,2004.28L1909.66,2115.01L2037.62,2115.01C2038.84,2114.87 2040.08,2114.79 2041.34,2114.79C2042.6,2114.79 2043.84,2114.87 2045.06,2115.01L2241.5,2115.01ZM2075.22,2338.63L2211.34,2338.63L2211.34,2182.75L2075.22,2182.75L2075.22,2338.63ZM2028.91,2587.07L2042.31,2703.24L2244.42,2703.24L2257.81,2587.07L2028.91,2587.07ZM1987.07,2519.54C1989.81,2519.21 1992.51,2519.23 1995.11,2519.54L2291.69,2519.54C2294.29,2519.23 2296.95,2519.21 2299.65,2519.54L2355.15,2519.54L2355.15,2463.09C2355.15,2432.02 2329.95,2406.63 2298.69,2406.63L1987.7,2406.59C1956.63,2406.59 1931.24,2431.78 1931.24,2463.05L1931.24,2519.54L1987.07,2519.54ZM2007.46,2770.67C1992.41,2768.6 1980.25,2756.52 1978.42,2740.96L1960.69,2587.07L1897.57,2587.07C1878.8,2587.07 1863.68,2571.96 1863.68,2553.19L1863.68,2462.85C1863.68,2394.49 1919.34,2338.63 1987.9,2338.63L2007.46,2338.63L2007.46,2182.75L1875.78,2182.75C1857.03,2182.75 1841.91,2167.64 1841.91,2148.87L1841.91,2004.28L1022.93,2004.28C1004.18,2004.28 989.058,1989.15 989.058,1970.39L989.058,1608.81L891.459,1608.81C872.696,1608.81 857.577,1593.69 857.577,1574.93L857.577,1514.23C782.356,1511.41 722.254,1449.29 722.254,1373.47L722.254,1328.29C722.254,1252.46 782.553,1190.34 857.577,1187.53L857.577,1126.82C857.577,1108.06 872.696,1092.94 891.459,1092.94L989.058,1092.94L989.058,804.961C989.058,745.687 1037.25,697.484 1096.54,697.484C1155.81,697.484 1204.01,745.687 1204.01,804.961L1204.01,996.337L1379.48,996.337L1379.48,950.557C1379.48,893.075 1426.06,846.496 1483.54,846.496L1681.58,846.496L1715.46,739.817C1726.96,703.718 1754.58,701.098 1762.86,701.098L2488.05,701.098C2496.31,701.098 2524.14,703.915 2535.45,740.024L2569.33,846.703L2767.35,846.703C2824.83,846.703 2871.42,893.281 2871.42,950.763L2871.42,992.023C2871.53,993.244 2871.61,994.486 2871.61,995.746C2871.61,996.987 2871.53,998.209 2871.42,999.42L2871.42,1121.48C2871.53,1122.7 2871.61,1123.94 2871.61,1125.2C2871.61,1126.44 2871.53,1127.66 2871.42,1128.87L2871.42,1729.78C2871.46,1742.49 2869.19,1754.65 2865.01,1765.91L3116.83,1765.91C3135.6,1765.91 3150.71,1781.03 3150.71,1799.79L3150.71,1970.39C3150.71,1989.15 3135.6,2004.28 3116.83,2004.28L2444.89,2004.28L2444.89,2148.87C2444.89,2167.62 2429.77,2182.75 2411.01,2182.75L2279.11,2182.75L2279.11,2338.63L2298.88,2338.63C2367.24,2338.63 2423.11,2394.3 2423.11,2462.85L2423.11,2553.19C2422.91,2571.96 2407.76,2587.07 2389.03,2587.07L2326.03,2587.07L2308.32,2740.96C2306.33,2756.54 2294.31,2768.62 2279.11,2770.69L2279.11,3141.66C2279.11,3160.41 2263.98,3175.54 2245.22,3175.54L2041.34,3175.54C2022.59,3175.54 2007.46,3160.41 2007.46,3141.66L2007.46,2770.67ZM2211.34,2771L2075.22,2771L2075.22,3107.78L2211.34,3107.78L2211.34,2771ZM2125.63,1261.55C2236.36,1261.55 2326.5,1351.69 2326.7,1462.61C2326.7,1573.54 2236.56,1663.67 2125.63,1663.67C2014.73,1663.67 1924.57,1573.54 1924.57,1462.61C1924.57,1351.69 2014.73,1261.55 2125.63,1261.55ZM2125.63,1731.41C1977.42,1731.41 1856.82,1610.8 1856.82,1462.58C1856.82,1314.36 1977.42,1193.76 2125.63,1193.76C2273.87,1193.76 2394.46,1314.36 2394.46,1462.58C2394.46,1610.8 2273.67,1731.41 2125.63,1731.41ZM2125.63,1367C2178.29,1367 2221.21,1409.77 2221.21,1462.58C2221.21,1515.2 2178.25,1558.16 2125.63,1558.16C2073.04,1558.16 2030.07,1515.23 2030.07,1462.58C2030.07,1409.97 2073,1367 2125.63,1367ZM2125.63,1625.95C2035.51,1625.95 1962.31,1552.76 1962.31,1462.61C1962.31,1372.47 2035.51,1299.27 2125.63,1299.27C2215.77,1299.27 2288.98,1372.47 2288.98,1462.61C2288.98,1552.76 2215.58,1625.95 2125.63,1625.95ZM2173.84,895.528L1886.05,895.528C1867.3,895.528 1852.18,880.408 1852.18,861.645C1852.18,842.882 1867.3,827.763 1886.05,827.763L2173.84,827.763C2192.61,827.763 2207.72,842.882 2207.72,861.645C2207.72,880.408 2192.61,895.528 2173.84,895.528ZM2378.33,856.799C2375.51,856.799 2373.29,859.025 2373.29,861.842C2373.29,867.289 2383.16,867.289 2383.16,861.842C2383.16,858.995 2380.95,856.799 2378.33,856.799ZM2378.33,924.544C2343.64,924.544 2315.59,896.296 2315.59,861.813C2315.59,827.339 2343.84,799.101 2378.33,799.101C2413,799.101 2441.05,827.339 2441.05,861.813C2441.05,896.296 2412.82,924.544 2378.33,924.544ZM2767.54,1765.91C2787.5,1765.91 2803.85,1749.57 2803.85,1729.61L2803.85,1159.08L1447.24,1159.08L1447.24,1193.49C1447.37,1194.71 1447.43,1195.95 1447.43,1197.21C1447.43,1198.47 1447.37,1199.71 1447.24,1200.93L1447.24,1479.45C1447.37,1480.67 1447.43,1481.91 1447.43,1483.17C1447.43,1484.43 1447.37,1485.67 1447.24,1486.89L1447.24,1646.63C1447.37,1647.84 1447.43,1649.09 1447.43,1650.35C1447.43,1651.61 1447.37,1652.85 1447.24,1654.08L1447.24,1729.58C1447.24,1749.54 1463.58,1765.88 1483.54,1765.88L1484.84,1765.91L2767.54,1765.91Z" style="fill:rgb(23,23,23);"/>
        </g>
        <g transform="matrix(1.40433,0,0,1.40433,-928.281,-909.495)">
            <rect x="1204.01" y="1833.67" width="1878.93" height="102.84" style="fill:rgb(226,222,226);"/>
        </g>
        <g transform="matrix(1.40433,0,0,1.40433,-928.281,-909.495)">
            <path d="M989.058,1540.65L989.058,1160.71L925.341,1160.71L925.341,1221.2C925.341,1239.96 910.222,1255.08 891.459,1255.08L863.014,1255.08C822.67,1255.08 790.019,1287.97 790.019,1328.09L790.019,1373.27C790.019,1413.61 822.897,1446.27 863.014,1446.27L891.459,1446.27C910.222,1446.27 925.341,1461.39 925.341,1480.14L925.341,1540.65L989.058,1540.65Z" style="fill:rgb(94,93,93);"/>
        </g>
        <g transform="matrix(1.40433,0,0,1.40433,-928.281,-909.495)">
            <path d="M1056.44,1130.37L1056.43,1570.89C1056.56,1572.08 1056.62,1573.3 1056.62,1574.53C1056.62,1575.76 1056.56,1576.98 1056.43,1578.18L1056.42,1936.51L1135.88,1936.51L1135.88,804.961C1135.88,783.174 1118.15,765.238 1096.16,765.238C1074.38,765.238 1056.45,782.977 1056.45,804.961L1056.44,1123.29C1056.56,1124.45 1056.62,1125.63 1056.62,1126.82C1056.62,1128.02 1056.56,1129.21 1056.44,1130.37Z" style="fill:rgb(226,222,226);"/>
        </g>
        <g transform="matrix(1.40433,0,0,1.40433,-928.281,-909.495)">
            <rect x="1204.01" y="1064.1" width="175.47" height="99.23" style="fill:rgb(94,93,93);"/>
        </g>
        <g transform="matrix(1.40433,0,0,1.40433,-928.281,-909.495)">
            <rect x="1204.01" y="1517.05" width="175.47" height="99.41" style="fill:rgb(94,93,93);"/>
        </g>
        <g transform="matrix(1.40433,0,0,1.40433,-928.281,-909.495)">
            <path d="M1379.48,1684.23L1204.01,1684.23L1204.01,1765.91L1385.99,1765.91C1381.79,1754.6 1379.48,1742.37 1379.48,1729.58L1379.48,1684.23Z" style="fill:rgb(94,93,93);"/>
        </g>
        <g transform="matrix(1.40433,0,0,1.40433,-928.281,-909.495)">
            <path d="M2125.63,1731.41C1977.42,1731.41 1856.82,1610.8 1856.82,1462.58C1856.82,1314.36 1977.42,1193.76 2125.63,1193.76C2273.87,1193.76 2394.46,1314.36 2394.46,1462.58C2394.46,1610.8 2273.67,1731.41 2125.63,1731.41ZM1447.24,1486.89L1447.24,1646.63C1447.37,1647.84 1447.43,1649.09 1447.43,1650.35C1447.43,1651.61 1447.37,1652.85 1447.24,1654.08L1447.24,1729.58C1447.24,1749.54 1463.58,1765.88 1483.54,1765.88L1484.84,1765.91L2767.54,1765.91C2787.5,1765.91 2803.85,1749.57 2803.85,1729.61L2803.85,1159.08L1447.24,1159.08L1447.24,1193.49C1447.37,1194.71 1447.43,1195.95 1447.43,1197.21C1447.43,1198.47 1447.37,1199.71 1447.24,1200.93L1447.24,1479.45C1447.37,1480.67 1447.43,1481.91 1447.43,1483.17C1447.43,1484.43 1447.37,1485.67 1447.24,1486.89Z" style="fill:rgb(255,167,33);"/>
        </g>
        <g transform="matrix(1.40433,0,0,1.40433,-928.281,-909.495)">
            <path d="M2030.07,1462.58C2030.07,1515.23 2073.04,1558.16 2125.63,1558.16C2178.25,1558.16 2221.21,1515.2 2221.21,1462.58C2221.21,1409.77 2178.29,1367 2125.63,1367C2073,1367 2030.07,1409.97 2030.07,1462.58Z" style="fill:rgb(153,255,255);"/>
        </g>
        <g transform="matrix(1.40433,0,0,1.40433,-928.281,-909.495)">
            <path d="M2125.63,1261.55C2014.73,1261.55 1924.57,1351.69 1924.57,1462.61C1924.57,1573.54 2014.73,1663.67 2125.63,1663.67C2236.56,1663.67 2326.7,1573.54 2326.7,1462.61C2326.5,1351.69 2236.36,1261.55 2125.63,1261.55ZM1962.31,1462.61C1962.31,1372.47 2035.51,1299.27 2125.63,1299.27C2215.77,1299.27 2288.98,1372.47 2288.98,1462.61C2288.98,1552.76 2215.58,1625.95 2125.63,1625.95C2035.51,1625.95 1962.31,1552.76 1962.31,1462.61Z" style="fill:rgb(102,102,102);"/>
        </g>
        <g transform="matrix(1.40433,0,0,1.40433,-928.281,-909.495)">
            <path d="M1447.24,1091.32L2803.85,1091.32L2803.85,1029.63L1447.43,1029.63L1447.43,1030.22C1447.43,1031.48 1447.37,1032.72 1447.24,1033.94L1447.24,1091.32Z" style="fill:rgb(118,136,161);"/>
        </g>
        <g transform="matrix(1.40433,0,0,1.40433,-928.281,-909.495)">
            <path d="M2173.84,895.528L1886.05,895.528C1867.3,895.528 1852.18,880.408 1852.18,861.645C1852.18,842.882 1867.3,827.763 1886.05,827.763L2173.84,827.763C2192.61,827.763 2207.72,842.882 2207.72,861.645C2207.72,880.408 2192.61,895.528 2173.84,895.528ZM2378.33,924.544C2343.64,924.544 2315.59,896.296 2315.59,861.813C2315.59,827.339 2343.84,799.101 2378.33,799.101C2413,799.101 2441.05,827.339 2441.05,861.813C2441.05,896.296 2412.82,924.544 2378.33,924.544ZM1447.24,961.864L2803.85,961.864L2803.85,950.586C2803.85,930.631 2787.5,914.291 2767.54,914.291L2544.71,914.261C2529.99,914.261 2516.89,904.776 2512.44,890.662L2473.73,768.863L1777.36,768.863L1738.63,890.662C1734.19,904.776 1721.1,914.261 1706.38,914.261L1483.54,914.261C1463.58,914.261 1447.24,930.602 1447.24,950.557L1447.24,961.864Z" style="fill:rgb(255,167,33);"/>
        </g>
        <g transform="matrix(1.40433,0,0,1.40433,-928.281,-909.495)">
            <path d="M2298.69,2406.63L1987.7,2406.59C1956.63,2406.59 1931.24,2431.78 1931.24,2463.05L1931.24,2519.54L1987.07,2519.54C1989.81,2519.21 1992.51,2519.23 1995.11,2519.54L2291.69,2519.54C2294.29,2519.23 2296.95,2519.21 2299.65,2519.54L2355.15,2519.54L2355.15,2463.09C2355.15,2432.02 2329.95,2406.63 2298.69,2406.63Z" style="fill:rgb(94,93,93);"/>
        </g>
        <g transform="matrix(1.40433,0,0,1.40433,-928.281,-909.495)">
            <rect x="2075.22" y="2182.75" width="136.12" height="155.88" style="fill:rgb(226,222,226);"/>
        </g>
        <g transform="matrix(1.40433,0,0,1.40433,-928.281,-909.495)">
            <path d="M2045.06,2115.01L2241.5,2115.01C2242.72,2114.87 2243.96,2114.79 2245.22,2114.79C2246.48,2114.79 2247.73,2114.87 2248.95,2115.01L2377.13,2115.01L2377.13,2004.28L1909.66,2004.28L1909.66,2115.01L2037.62,2115.01C2038.84,2114.87 2040.08,2114.79 2041.34,2114.79C2042.6,2114.79 2043.84,2114.87 2045.06,2115.01Z" style="fill:rgb(94,93,93);"/>
        </g>
        <g transform="matrix(1.40433,0,0,1.40433,-928.281,-909.495)">
            <path d="M2257.81,2587.07L2028.91,2587.07L2042.31,2703.24L2244.42,2703.24L2257.81,2587.07Z" style="fill:rgb(94,93,93);"/>
        </g>
        <g transform="matrix(1.40433,0,0,1.40433,-928.281,-909.495)">
            <rect x="2075.22" y="2771" width="136.12" height="336.78" style="fill:rgb(226,222,226);"/>
        </g>
        <g transform="matrix(1.40433,0,0,1.40433,-928.281,-909.495)">
            <path d="M2373.29,861.842C2373.29,867.289 2383.16,867.289 2383.16,861.842C2383.16,858.995 2380.95,856.799 2378.33,856.799C2375.51,856.799 2373.29,859.025 2373.29,861.842Z" style="fill:rgb(118,136,161);"/>
        </g>
    </g>
</svg>
